# xmcd
#
# Track frame offsets:
# 150
# 18878
# 45985
# 62705
# 83030
# 98858
# 120085
# 139493
# 158263
# 175688
#
# Disc length: 2665 seconds
#
#
# Revision: 0
# Processed by: cddbd v1.4PL0 Copyright (c) Steve Scherf et al.
# Submitted via: FreeRIP 2.11 
#
DISCID=690a670a
DTITLE=Don Baker - Miss you
DYEAR=2000
DGENRE=
TTITLE0=Chains
TTITLE1=Drivin'
TTITLE2=Miss you
TTITLE3=Louise
TTITLE4=Jackin' it in
TTITLE5=Funky duck
TTITLE6=Childhood blues
TTITLE7=Mama
TTITLE8=Rain on the wind
TTITLE9=Waiting for the daylight
EXTD=
EXTT0=
EXTT1=
EXTT2=
EXTT3=
EXTT4=
EXTT5=
EXTT6=
EXTT7=
EXTT8=
EXTT9=
PLAYORDER=
